<svg xmlns="http://www.w3.org/2000/svg" width="18.939" height="18.939" viewBox="0 0 18.939 18.939"><defs><style>.a{fill:#fff;fill-rule:evenodd;}</style></defs><path class="a" d="M24.469,11A9.139,9.139,0,0,0,15,20.186a8.986,8.986,0,0,0,2.974,6.794.763.763,0,0,1,.255.539l.051,1.684a.759.759,0,0,0,1.063.671l1.879-.829a.756.756,0,0,1,.5-.038,10.3,10.3,0,0,0,2.742.364,9.19,9.19,0,1,0,0-18.371Zm5.685,7.067L27.373,22.48a1.422,1.422,0,0,1-2.054.379L23.107,21.2a.569.569,0,0,0-.684,0l-2.988,2.267a.449.449,0,0,1-.652-.6l2.782-4.413a1.422,1.422,0,0,1,2.054-.379l2.212,1.66a.569.569,0,0,0,.684,0L29.5,17.469A.449.449,0,0,1,30.155,18.067Z" transform="translate(-15 -11)"/></svg>