<svg xmlns="http://www.w3.org/2000/svg" width="19.186" height="15.896" viewBox="0 0 19.186 15.896"><defs><style>.a{fill:#fff;}</style></defs><path class="a" d="M275.241-34.638H258.055a1,1,0,0,0-1,1v10.415a1,1,0,0,0,1,1h11.28l3.481,3.481v-3.481h2.425a1,1,0,0,0,1-1V-33.638A1,1,0,0,0,275.241-34.638Zm-13.993,3.387h10.765a.829.829,0,0,1,.807.846.828.828,0,0,1-.807.846H261.248a.828.828,0,0,1-.807-.846A.829.829,0,0,1,261.248-31.251Zm10.8,5.642H261.284a.828.828,0,0,1-.807-.846.829.829,0,0,1,.807-.846h10.765a.829.829,0,0,1,.807.846A.828.828,0,0,1,272.048-25.609Z" transform="translate(-257.055 34.638)"/></svg>