<svg xmlns="http://www.w3.org/2000/svg" width="16.1" height="16.086" viewBox="0 0 16.1 16.086"><defs><style>.a{fill:#fff;}</style></defs><path class="a" d="M16.583,12.925a1.949,1.949,0,0,1-.086,2.743,4.916,4.916,0,0,1-3.431,1.455,4.25,4.25,0,0,1-1.723-.354l-.1-.043A19.083,19.083,0,0,1,1.4,6.88l-.038-.091a4.712,4.712,0,0,1,1.1-5.159A2,2,0,0,1,5.2,1.544l.838.838a1.827,1.827,0,0,1,.478,1.707A2.087,2.087,0,0,1,5.2,5.613l-.338.123a13.174,13.174,0,0,0,7.532,7.532l.123-.338a2.1,2.1,0,0,1,1.949-1.369,1.8,1.8,0,0,1,1.283.526Z" transform="translate(-1.007 -1.038)"/></svg>