<svg width="23" height="25" viewBox="0 0 23 25" fill="none" xmlns="http://www.w3.org/2000/svg">
<g clip-path="url(#clip0)">
<path fill-rule="evenodd" clip-rule="evenodd" d="M19.6452 4.84426C17.4874 2.68579 14.6104 1.5 11.5467 1.5C5.238 1.5 0.0988301 6.61475 0.0933396 12.8934C0.0933396 14.9044 0.620434 16.8607 1.61972 18.5929L0 24.5L6.07256 22.9153C7.74718 23.8224 9.63045 24.3033 11.5467 24.3033H11.5521C17.8608 24.3033 23 19.1885 23.0055 12.9044C23 9.86066 21.8085 6.99727 19.6452 4.84426ZM11.5467 22.3743C9.8336 22.3743 8.15898 21.9153 6.69849 21.0519L6.35258 20.8443L2.75077 21.7842L3.71162 18.2869L3.48651 17.9262C2.53115 16.418 2.03151 14.6749 2.03151 12.888C2.03151 7.67486 6.30317 3.4235 11.5521 3.4235C14.0943 3.4235 16.4827 4.41257 18.2836 6.19945C20.079 7.9918 21.0673 10.3689 21.0673 12.8989C21.0618 18.1284 16.7901 22.3743 11.5467 22.3743ZM16.7682 15.2814C16.4827 15.1393 15.0771 14.4508 14.8135 14.3525C14.55 14.2596 14.3578 14.2104 14.1711 14.4945C13.979 14.7787 13.4299 15.4235 13.2652 15.6093C13.1005 15.8005 12.9303 15.8224 12.6448 15.6803C12.3593 15.5383 11.4368 15.2377 10.3442 14.265C9.49318 13.5109 8.92216 12.5765 8.75196 12.2923C8.58724 12.0082 8.73549 11.8552 8.87824 11.7131C9.00452 11.5874 9.16375 11.3798 9.30651 11.2158C9.44926 11.0519 9.49867 10.9317 9.59201 10.7404C9.68535 10.5492 9.64143 10.3852 9.57005 10.2432C9.49868 10.1011 8.92766 8.69672 8.68607 8.12842C8.45547 7.57104 8.21937 7.64754 8.04368 7.64208C7.87896 7.63115 7.68679 7.63115 7.49462 7.63115C7.30245 7.63115 6.99498 7.70219 6.73143 7.98634C6.46788 8.27049 5.73215 8.95902 5.73215 10.3634C5.73215 11.7678 6.75888 13.1175 6.90164 13.3087C7.04439 13.5 8.91667 16.3743 11.7882 17.6093C12.4691 17.9044 13.0017 18.0792 13.4189 18.2104C14.1053 18.429 14.7257 18.3962 15.2198 18.3251C15.7689 18.2432 16.9109 17.6366 17.1525 16.9699C17.3886 16.3033 17.3886 15.735 17.3172 15.6148C17.2459 15.4945 17.0537 15.4235 16.7682 15.2814Z" fill="white"/>
</g>
<defs>
<clipPath id="clip0">
<rect width="23" height="24" fill="white" transform="translate(0 0.5)"/>
</clipPath>
</defs>
</svg>
